# This file uses centimeters as units for non-parametric coordinates.

mtllib LP_Balka.mtl
g default
v 1.317443 1.601748 -0.051659
v 1.338229 1.622423 -0.051659
v 1.317443 1.622423 -0.031101
v 1.317443 1.804549 -0.031101
v 1.338229 1.804549 -0.051659
v 1.317443 1.825224 -0.051659
v 1.317443 1.825224 -0.243836
v 1.338229 1.804549 -0.243836
v 1.317443 1.804549 -0.264393
v 1.317443 1.622423 -0.264393
v 1.338229 1.622423 -0.243836
v 1.317443 1.601748 -0.243836
v -1.625876 1.601748 -0.051659
v -1.625876 1.622423 -0.031101
v -1.646662 1.622423 -0.051659
v -1.625876 1.825224 -0.051659
v -1.646662 1.804549 -0.051659
v -1.625876 1.804549 -0.031101
v -1.625876 1.804549 -0.264393
v -1.646662 1.804549 -0.243836
v -1.625876 1.825224 -0.243836
v -1.625876 1.601748 -0.243836
v -1.646662 1.622423 -0.243836
v -1.625876 1.622423 -0.264393
vt 0.625422 0.884831
vt 0.625421 0.886665
vt 0.459493 0.886638
vt 0.459501 0.884804
vt 0.212986 0.261879
vt 0.625417 0.872518
vt 0.627015 0.871596
vt 0.223448 0.261877
vt 0.625482 0.843063
vt 0.625472 0.844926
vt 0.459456 0.844904
vt 0.459447 0.843040
vt 0.223447 0.249376
vt 0.625427 0.857251
vt 0.625423 0.870686
vt 0.625420 0.859085
vt 0.459500 0.859058
vt 0.459503 0.857224
vt 0.459499 0.872491
vt 0.459505 0.870658
vt 0.457906 0.885682
vt 0.552940 0.301472
vt 0.457844 0.844811
vt 0.457929 0.858170
vt 0.457906 0.871618
vt 0.577250 0.301475
vt 0.457720 0.898178
vt 0.577253 0.272426
vt 0.552943 0.272423
vt 0.459439 0.898252
vt 0.627018 0.858157
vt 0.212985 0.249378
vt 0.627136 0.898204
vt 0.627139 0.844836
vt 0.625476 0.898275
vt 0.626990 0.885675
vn 0.006498 -0.995329 0.096323
vn 0.006435 -0.100432 0.994923
vn -0.006435 -0.100432 0.994923
vn -0.006498 -0.995329 0.096323
vn 0.809261 -0.425967 0.404535
vn 0.006498 -0.995329 -0.096323
vn 0.809261 -0.425967 -0.404536
vn 0.703194 0.000000 0.710998
vn 0.006935 0.000000 0.999976
vn 0.001655 0.705097 0.709109
vn 0.006498 0.995329 0.096323
vn -0.006498 0.995329 0.096323
vn -0.001655 0.705097 0.709109
vn 0.704998 0.708788 0.024435
vn 0.809261 0.425967 -0.404536
vn 0.006498 0.995329 -0.096323
vn 0.006435 -0.100431 -0.994923
vn 0.006435 0.100432 -0.994923
vn -0.006435 0.100432 -0.994923
vn -0.006498 0.995329 -0.096323
vn -0.006498 -0.995329 -0.096323
vn -0.006435 -0.100431 -0.994923
vn -0.809262 -0.425965 0.404536
vn -0.809262 -0.425965 -0.404536
vn -0.006935 0.000000 0.999976
vn -0.703194 0.000000 0.710998
vn -0.705001 0.708786 0.024435
vn -0.809262 0.425965 -0.404536
vn 1.000000 0.000000 0.000000
vn 1.000000 0.000000 0.000000
vn 1.000000 0.000000 0.000000
vn 1.000000 0.000000 0.000000
vn -1.000000 0.000000 0.000000
vn -1.000000 0.000000 0.000000
vn -1.000000 0.000000 0.000000
vn -1.000000 0.000000 0.000000
s 1
g LP_Balka LP_Balka LP_All
usemtl blinn14SG
f 1/1/1 3/2/2 14/3/3 13/4/4
f 2/36/5 1/1/1 12/6/6 11/7/7
f 3/2/2 2/36/5 5/33/8 4/35/9
f 4/9/10 6/10/11 16/11/12 18/12/13
f 6/10/11 5/34/14 8/31/15 7/14/16
f 11/7/7 10/15/17 9/16/18 8/31/15
f 7/14/16 9/16/18 19/17/19 21/18/20
f 10/15/17 12/6/6 22/19/21 24/20/22
f 13/4/4 15/21/23 23/25/24 22/19/21
f 15/21/23 14/3/3 18/30/25 17/27/26
f 17/23/27 16/11/12 21/18/20 20/24/28
f 20/24/28 19/17/19 24/20/22 23/25/24
s off
f 11/32/29 8/13/30 5/8/31 2/5/32
s 1
f 4/35/9 18/30/25 14/3/3 3/2/2
s off
f 20/26/33 23/22/34 15/29/35 17/28/36
s 1
f 7/14/16 21/18/20 16/11/12 6/10/11
f 13/4/4 22/19/21 12/6/6 1/1/1
f 10/15/17 24/20/22 19/17/19 9/16/18
f 1/1/1 2/36/5 3/2/2
f 4/9/10 5/34/14 6/10/11
f 7/14/16 8/31/15 9/16/18
f 10/15/17 11/7/7 12/6/6
f 13/4/4 14/3/3 15/21/23
f 16/11/12 17/23/27 18/12/13
f 19/17/19 20/24/28 21/18/20
f 22/19/21 23/25/24 24/20/22
g default
v -1.336952 1.552983 -0.130341
v -1.336893 1.547198 -0.138585
v -1.336893 1.547198 -0.148049
v -1.336944 1.552987 -0.156288
v -1.336808 1.562411 -0.159251
v -1.336743 1.562411 -0.127430
v -1.336952 1.547500 -0.122794
v -1.336893 1.538244 -0.135675
v -1.336893 1.538244 -0.150958
v -1.336944 1.547497 -0.163844
v -1.336808 1.562411 -0.168789
v -1.336743 1.562411 -0.117797
v -1.345824 1.545806 -0.120462
v -1.345846 1.535477 -0.134776
v -1.345846 1.535477 -0.151857
v -1.345827 1.545800 -0.166179
v -1.345879 1.562411 -0.171736
v -1.345904 1.562411 -0.114821
v -1.351306 1.550242 -0.126568
v -1.351380 1.542721 -0.137130
v -1.351380 1.542721 -0.149503
v -1.351317 1.550242 -0.160066
v -1.351485 1.562411 -0.164020
v -1.351565 1.562411 -0.122614
v -1.345824 1.554677 -0.132673
v -1.345846 1.549965 -0.139484
v -1.345846 1.549965 -0.147150
v -1.345827 1.554684 -0.153953
v -1.345879 1.562411 -0.156304
v -1.345904 1.562411 -0.130406
v -1.336672 1.603398 -0.127481
v -1.336672 1.603398 -0.117746
v -1.345931 1.603398 -0.114738
v -1.351653 1.603398 -0.122614
v -1.345931 1.603398 -0.130490
v -1.336672 1.606496 -0.159152
v -1.336672 1.606496 -0.168888
v -1.345931 1.606496 -0.171896
v -1.351653 1.606496 -0.164020
v -1.345931 1.606496 -0.156144
v 1.040430 1.554677 -0.132673
v 1.040453 1.549965 -0.139484
v 1.040453 1.549965 -0.147150
v 1.040433 1.554684 -0.153953
v 1.040485 1.562411 -0.156304
v 1.040510 1.562411 -0.130406
v 1.045913 1.550242 -0.126568
v 1.045986 1.542721 -0.137130
v 1.045986 1.542721 -0.149503
v 1.045923 1.550242 -0.160066
v 1.046091 1.562411 -0.164020
v 1.046172 1.562411 -0.122614
v 1.040430 1.545806 -0.120462
v 1.040453 1.535477 -0.134776
v 1.040453 1.535477 -0.151857
v 1.040433 1.545800 -0.166179
v 1.040485 1.562411 -0.171736
v 1.040510 1.562411 -0.114821
v 1.031559 1.547500 -0.122794
v 1.031499 1.538244 -0.135675
v 1.031499 1.538244 -0.150958
v 1.031550 1.547497 -0.163844
v 1.031414 1.562411 -0.168789
v 1.031349 1.562411 -0.117797
v 1.031559 1.552983 -0.130341
v 1.031499 1.547198 -0.138585
v 1.031499 1.547198 -0.148049
v 1.031550 1.552987 -0.156288
v 1.031414 1.562411 -0.159251
v 1.031349 1.562411 -0.127430
v 1.040537 1.603398 -0.130490
v 1.046259 1.603398 -0.122614
v 1.040537 1.603398 -0.114738
v 1.031278 1.603398 -0.117746
v 1.031278 1.603398 -0.127481
v 1.040537 1.606496 -0.156144
v 1.046259 1.606496 -0.164020
v 1.040537 1.606496 -0.171896
v 1.031278 1.606496 -0.168888
v 1.031278 1.606496 -0.159152
vt 0.622676 0.210971
vt 0.621857 0.211105
vt 0.621657 0.210017
vt 0.622613 0.209949
vt 0.623537 0.210923
vt 0.623525 0.209908
vt 0.624363 0.210881
vt 0.624385 0.209951
vt 0.625237 0.210954
vt 0.625299 0.209942
vt 0.626060 0.211081
vt 0.626250 0.210015
vt 0.621589 0.208919
vt 0.622585 0.208901
vt 0.623518 0.208840
vt 0.624393 0.208904
vt 0.625326 0.208894
vt 0.626315 0.208928
vt 0.621691 0.207826
vt 0.622601 0.207880
vt 0.623523 0.207872
vt 0.624397 0.207877
vt 0.625309 0.207871
vt 0.626220 0.207830
vt 0.621831 0.206731
vt 0.622752 0.212046
vt 0.623573 0.211969
vt 0.624345 0.211967
vt 0.625164 0.212025
vt 0.625939 0.212165
vt 0.618589 0.206751
vt 0.618691 0.211377
vt 0.618628 0.210240
vt 0.618586 0.209072
vt 0.618580 0.207899
vt 0.629526 0.210210
vt 0.629470 0.211367
vt 0.629555 0.209041
vt 0.629555 0.207891
vt 0.629418 0.212498
vt 0.073905 0.337327
vt 0.073986 0.336651
vt 0.071741 0.336394
vt 0.071767 0.337194
vt 0.073866 0.338046
vt 0.071770 0.337995
vt 0.073885 0.338721
vt 0.071767 0.338761
vt 0.073916 0.339442
vt 0.071771 0.339570
vt 0.071188 0.340253
vt 0.071749 0.340368
vt 0.072310 0.336304
vt 0.072294 0.337178
vt 0.072299 0.337998
vt 0.072264 0.338766
vt 0.072296 0.339584
vt 0.072308 0.340452
vt 0.072873 0.336364
vt 0.072833 0.337202
vt 0.072839 0.338004
vt 0.072813 0.338760
vt 0.072836 0.339559
vt 0.072869 0.340395
vt 0.073424 0.336539
vt 0.073355 0.337258
vt 0.073319 0.338025
vt 0.073334 0.338750
vt 0.073361 0.339506
vt 0.073426 0.340228
vt 0.073566 0.333752
vt 0.074150 0.333801
vt 0.071769 0.333675
vt 0.072363 0.333672
vt 0.072968 0.333699
vt 0.071788 0.343304
vt 0.071199 0.343298
vt 0.072389 0.343297
vt 0.072987 0.343264
vt 0.073571 0.343213
vt 0.074147 0.343169
vt 0.073989 0.340123
vt 0.071189 0.333682
vt 0.071168 0.336516
vt 0.071229 0.337234
vt 0.071241 0.339529
vt 0.071277 0.338746
vt 0.071243 0.338008
vt 0.629549 0.206766
vt 0.626089 0.206726
vt 0.618744 0.212498
vt 0.621983 0.212207
vt 0.622651 0.206849
vt 0.625266 0.206827
vt 0.624383 0.206854
vt 0.623543 0.206920
vn 0.915030 0.233103 -0.329217
vn 0.833709 0.022060 -0.551764
vn 0.780039 -0.063252 0.622526
vn 0.681659 -0.436273 0.587374
vn 0.912147 0.390334 -0.125010
vn 0.683735 -0.693142 0.228168
vn 0.912207 0.390054 0.125446
vn 0.683674 -0.693262 -0.227987
vn 0.914495 0.236958 0.327948
vn 0.682228 -0.434683 -0.587891
vn 0.832561 0.021050 0.553533
vn 0.781558 -0.059955 -0.620944
vn -0.291217 -0.081856 0.953149
vn -0.237288 -0.577205 0.781363
vn -0.238210 -0.922578 0.303491
vn -0.238179 -0.922635 -0.303339
vn -0.237546 -0.576218 -0.782013
vn -0.292141 -0.077636 -0.953219
vn -0.998217 -0.024107 0.054600
vn -0.970693 -0.146911 0.190190
vn -0.971932 -0.223104 0.074655
vn -0.971901 -0.223329 -0.074377
vn -0.970999 -0.144174 -0.190722
vn -0.998388 -0.022765 -0.051982
vn -0.807895 0.035349 -0.588266
vn -0.811465 0.341287 -0.474391
vn -0.808064 0.560867 -0.180168
vn -0.808124 0.560640 0.180604
vn -0.810868 0.344751 0.472906
vn -0.808179 0.033691 0.587972
vn 0.311018 0.558261 -0.769164
vn 0.308289 0.048897 -0.950035
vn 0.308085 0.905030 -0.293266
vn 0.308132 0.904835 0.293816
vn 0.310589 0.561997 0.766612
vn 0.308470 0.046359 0.950104
vn 0.309026 -0.001726 -0.951052
vn 0.809017 -0.002134 -0.587781
vn 0.809015 -0.002133 0.587785
vn -0.309017 -0.002134 0.951054
vn -0.999998 -0.002136 -0.000000
vn -0.809020 -0.001727 -0.587779
vn 0.809011 -0.003814 -0.587781
vn 0.809013 -0.003815 0.587778
vn -0.309020 -0.003815 -0.951048
vn -0.999993 -0.003816 -0.000000
vn -0.809017 -0.003087 0.587777
vn 0.309027 -0.003087 0.951048
vn 0.811459 0.341299 -0.474393
vn 0.807894 0.035352 -0.588267
vn 0.998217 -0.024103 0.054600
vn 0.970693 -0.146915 0.190187
vn 0.808053 0.560883 -0.180171
vn 0.971931 -0.223108 0.074652
vn 0.808118 0.560650 0.180603
vn 0.971900 -0.223334 -0.074376
vn 0.810867 0.344750 0.472908
vn 0.970998 -0.144183 -0.190721
vn 0.808176 0.033693 0.587977
vn 0.998389 -0.022765 -0.051982
vn 0.291218 -0.081854 0.953149
vn 0.237291 -0.577205 0.781363
vn 0.238211 -0.922578 0.303489
vn 0.238181 -0.922636 -0.303337
vn 0.237545 -0.576223 -0.782010
vn 0.292137 -0.077637 -0.953220
vn -0.780037 -0.063254 0.622528
vn -0.681655 -0.436270 0.587380
vn -0.683734 -0.693142 0.228171
vn -0.683668 -0.693268 -0.227986
vn -0.682230 -0.434687 -0.587886
vn -0.781557 -0.059960 -0.620946
vn -0.833708 0.022057 -0.551765
vn -0.915035 0.233095 -0.329209
vn -0.912149 0.390330 -0.125007
vn -0.912212 0.390042 0.125442
vn -0.914501 0.236942 0.327944
vn -0.832561 0.021046 0.553534
vn -0.308292 0.048896 -0.950035
vn -0.311028 0.558252 -0.769166
vn -0.308090 0.905029 -0.293263
vn -0.308138 0.904836 0.293808
vn -0.310594 0.561987 0.766617
vn -0.308465 0.046357 0.950106
vn -0.809016 -0.002136 -0.587782
vn -0.309028 -0.001728 -0.951051
vn 0.809018 -0.001726 -0.587781
vn 0.999998 -0.002132 0.000000
vn 0.309016 -0.002133 0.951055
vn -0.809014 -0.002136 0.587786
vn 0.999993 -0.003814 0.000000
vn 0.809014 -0.003084 0.587782
vn 0.309014 -0.003817 -0.951050
vn -0.809011 -0.003817 -0.587781
vn -0.809013 -0.003818 0.587778
vn -0.309021 -0.003089 0.951050
s 1
g LP_Balka LP_All LP_Chain
usemtl blinn14SG
f 25/37/37 30/38/38 36/39/39 31/40/40
f 26/41/41 25/37/37 31/40/40 32/42/42
f 27/43/43 26/41/41 32/42/42 33/44/44
f 28/45/45 27/43/43 33/44/44 34/46/46
f 29/47/47 28/45/45 34/46/46 35/48/48
f 31/40/40 36/39/39 42/49/49 37/50/50
f 32/42/42 31/40/40 37/50/50 38/51/51
f 33/44/44 32/42/42 38/51/51 39/52/52
f 34/46/46 33/44/44 39/52/52 40/53/53
f 35/48/48 34/46/46 40/53/53 41/54/54
f 37/50/50 42/49/49 48/55/55 43/56/56
f 38/51/51 37/50/50 43/56/56 44/57/57
f 39/52/52 38/51/51 44/57/57 45/58/58
f 40/53/53 39/52/52 45/58/58 46/59/59
f 41/54/54 40/53/53 46/59/59 47/60/60
f 43/56/56 48/55/55 54/61/61 49/129/62
f 44/57/57 43/56/56 49/129/62 50/132/63
f 45/58/58 44/57/57 50/132/63 51/131/64
f 46/59/59 45/58/58 51/131/64 52/130/65
f 47/60/60 46/59/59 52/130/65 53/126/66
f 25/37/37 49/62/67 54/128/68 30/38/38
f 26/41/41 50/63/69 49/62/67 25/37/37
f 27/43/43 51/64/70 50/63/69 26/41/41
f 28/45/45 52/65/71 51/64/70 27/43/43
f 53/66/72 52/65/71 28/45/45 29/47/47
f 59/127/73 55/68/74 30/38/38 54/128/68
f 55/68/74 56/69/75 36/39/39 30/38/38
f 56/69/75 57/70/76 42/49/49 36/39/39
f 57/70/76 58/71/77 48/55/55 42/49/49
f 58/71/77 59/67/78 54/61/61 48/55/55
f 61/72/79 60/73/80 29/47/47 35/48/48
f 62/74/81 61/72/79 35/48/48 41/54/54
f 63/75/82 62/74/81 41/54/54 47/60/60
f 64/125/83 63/75/82 47/60/60 53/126/66
f 60/73/80 64/76/84 53/66/72 29/47/47
s 2
f 65/121/85 70/120/86 76/79/87 71/80/88
f 66/124/89 65/121/85 71/80/88 72/82/90
f 67/123/91 66/124/89 72/82/90 73/84/92
f 68/122/93 67/123/91 73/84/92 74/86/94
f 69/87/95 68/122/93 74/86/94 75/88/96
f 71/80/88 76/79/87 82/89/97 77/90/98
f 72/82/90 71/80/88 77/90/98 78/91/99
f 73/84/92 72/82/90 78/91/99 79/92/100
f 74/86/94 73/84/92 79/92/100 80/93/101
f 75/88/96 74/86/94 80/93/101 81/94/102
f 77/90/98 82/89/97 88/95/103 83/96/104
f 78/91/99 77/90/98 83/96/104 84/97/105
f 79/92/100 78/91/99 84/97/105 85/98/106
f 80/93/101 79/92/100 85/98/106 86/99/107
f 81/94/102 80/93/101 86/99/107 87/100/108
f 83/96/104 88/95/103 94/101/109 89/102/110
f 84/97/105 83/96/104 89/102/110 90/103/111
f 85/98/106 84/97/105 90/103/111 91/104/112
f 86/99/107 85/98/106 91/104/112 92/105/113
f 87/100/108 86/99/107 92/105/113 93/106/114
f 89/102/110 94/101/109 70/78/115 65/77/116
f 90/103/111 89/102/110 65/77/116 66/81/117
f 91/104/112 90/103/111 66/81/117 67/83/118
f 92/105/113 91/104/112 67/83/118 68/85/119
f 93/106/114 92/105/113 68/85/119 69/118/120
f 99/107/121 95/108/122 70/78/115 94/101/109
f 95/119/123 96/109/124 76/79/87 70/120/86
f 96/109/124 97/110/125 82/89/97 76/79/87
f 97/110/125 98/111/126 88/95/103 82/89/97
f 98/111/126 99/107/121 94/101/109 88/95/103
f 101/112/127 100/113/128 69/87/95 75/88/96
f 102/114/129 101/112/127 75/88/96 81/94/102
f 103/115/130 102/114/129 81/94/102 87/100/108
f 104/116/131 103/115/130 87/100/108 93/106/114
f 100/117/132 104/116/131 93/106/114 69/118/120
