# This file uses centimeters as units for non-parametric coordinates.

mtllib Back_LP.mtl
g default
v -1.261849 1.045269 -0.114895
v -1.242738 1.091408 -0.114895
v -1.196598 1.110520 -0.114895
v 0.909796 1.045269 -0.114895
v 0.844544 1.110520 -0.114895
v 0.890684 1.091408 -0.114895
v -1.242738 0.562172 -0.114895
v -1.261849 0.608311 -0.114895
v -1.196598 0.543060 -0.114895
v 0.890684 0.562172 -0.114895
v 0.844544 0.543060 -0.114895
v 0.909796 0.608311 -0.114895
v -1.196598 1.110520 -0.100405
v 0.844544 1.110520 -0.100405
v -1.196598 0.543060 -0.100405
v 0.844544 0.543060 -0.100405
v -1.261849 1.045269 -0.100405
v -1.261849 0.608311 -0.100405
v 0.909796 1.045269 -0.100405
v 0.909796 0.608311 -0.100405
v -1.242738 1.091408 -0.100405
v 0.890684 1.091408 -0.100405
v -1.242738 0.562172 -0.100405
v 0.890684 0.562172 -0.100405
vt 0.391714 0.020739
vt 0.061017 0.208021
vt 0.059822 0.588468
vt 0.057124 0.588460
vt 0.386818 0.009734
vt 0.061017 0.195355
vt 0.026797 0.514942
vt 0.261045 0.518028
vt 0.023584 0.526688
vt 0.023344 0.514937
vt 0.387128 0.518030
vt 0.256427 0.020904
vt 0.024176 0.028489
vt 0.027758 0.642684
vt 0.059904 0.598085
vt 0.059941 0.608120
vt 0.055617 0.005268
vt 0.260942 0.009930
vt 0.023896 0.016655
vt 0.023375 0.004705
vt 0.375835 0.005204
vt 0.061293 0.177405
vt 0.272035 0.522581
vt 0.023767 0.538493
vt 0.055648 0.177417
vt 0.271903 0.005367
vt 0.376136 0.522582
vt 0.027221 0.538471
vt 0.027628 0.028493
vt 0.027362 0.016542
vt 0.027001 0.526629
vt 0.056518 0.195516
vt 0.391680 0.507040
vt 0.057036 0.598084
vt 0.256498 0.507042
vt 0.058289 0.208018
vt 0.057001 0.608121
vt 0.024304 0.642702
vt 0.026847 0.004555
vt 0.061324 0.005268
vn 0.009156 0.999958 0.000000
vn 0.009156 0.999958 0.000000
vn -0.009156 0.999958 0.000000
vn -0.009156 0.999958 0.000000
vn 0.382683 0.923880 0.000000
vn 0.382683 0.923880 0.000000
vn -0.009156 -0.999958 0.000000
vn -0.382685 -0.923879 0.000000
vn -0.382685 -0.923879 0.000000
vn -0.009156 -0.999958 0.000000
vn -0.000000 0.000000 1.000000
vn -0.000000 0.000000 1.000000
vn -0.000000 0.000000 1.000000
vn -0.000000 0.000000 1.000000
vn 0.000000 0.000000 1.000000
vn 0.000000 0.000000 1.000000
vn 0.009156 -0.999958 0.000000
vn 0.009156 -0.999958 0.000000
vn -0.999218 0.039529 0.000000
vn -0.923882 0.382678 0.000000
vn -0.923882 0.382678 0.000000
vn -0.999218 0.039529 0.000000
vn 0.999218 -0.039530 0.000000
vn 0.923879 -0.382685 0.000000
vn 0.923879 -0.382685 0.000000
vn 0.999218 -0.039530 0.000000
vn -0.382683 0.923880 0.000000
vn -0.382683 0.923880 0.000000
vn 0.923879 0.382684 0.000000
vn 0.999218 0.039530 0.000000
vn 0.999218 0.039530 0.000000
vn 0.923879 0.382684 0.000000
vn 0.000000 0.000000 1.000000
vn 0.000000 0.000000 1.000000
vn -0.923881 -0.382679 0.000000
vn -0.999218 -0.039529 0.000000
vn -0.999218 -0.039529 0.000000
vn -0.923881 -0.382679 0.000000
vn 0.000000 0.000000 1.000000
vn 0.000000 0.000000 1.000000
vn 0.382685 -0.923879 0.000000
vn 0.382685 -0.923879 0.000000
vn 0.000000 0.000000 1.000000
vn 0.000000 0.000000 1.000000
s 1
g Back_LP LP_All
usemtl blinn15SG
f 14/36/1 5/2/2 3/3/3 13/4/4
f 14/36/1 22/32/5 6/6/6 5/2/2
s 2
f 15/7/7 23/31/8 7/9/9 9/10/10
s 3
f 23/8/11 15/35/12 13/33/13 21/11/14
f 16/12/15 14/1/16 13/33/13 15/35/12
s 2
f 9/10/10 11/13/17 16/29/18 15/7/7
s 4
f 17/37/19 21/34/20 2/15/21 1/16/22
s 5
f 20/39/23 24/30/24 10/19/25 12/20/26
s 1
f 21/34/27 13/4/4 3/3/3 2/15/28
s 5
f 22/32/29 19/25/30 4/22/31 6/6/32
s 3
f 18/23/33 23/8/11 21/11/14 17/27/34
s 4
f 23/31/35 18/28/36 8/24/37 7/9/38
s 3
f 16/12/15 24/18/39 22/5/40 14/1/16
s 2
f 24/30/41 16/29/18 11/13/17 10/19/42
s 4
f 1/38/22 8/24/37 18/28/36 17/14/19
s 3
f 24/18/39 20/26/43 19/21/44 22/5/40
s 5
f 20/17/23 12/40/26 4/22/31 19/25/30
