# This file uses centimeters as units for non-parametric coordinates.

mtllib LP_Balka.mtl
g default
v 0.788228 2.662887 -0.051659
v 0.801539 2.683562 -0.051659
v 0.788228 2.683562 -0.031101
v 0.788228 2.865687 -0.031101
v 0.801539 2.865687 -0.051659
v 0.788228 2.886362 -0.051659
v 0.788228 2.886362 -0.243836
v 0.801539 2.865687 -0.243836
v 0.788228 2.865687 -0.264393
v 0.788228 2.683562 -0.264393
v 0.801539 2.683562 -0.243836
v 0.788228 2.662887 -0.243836
v -1.096661 2.662887 -0.051659
v -1.096661 2.683562 -0.031101
v -1.109972 2.683562 -0.051659
v -1.096661 2.886362 -0.051659
v -1.109972 2.865687 -0.051659
v -1.096661 2.865687 -0.031101
v -1.096661 2.865687 -0.264393
v -1.109972 2.865687 -0.243836
v -1.096661 2.886362 -0.243836
v -1.096661 2.662887 -0.243836
v -1.109972 2.683562 -0.243836
v -1.096661 2.683562 -0.264393
vt 0.670017 0.011439
vt 0.676518 0.011401
vt 0.676526 0.458934
vt 0.669932 0.458904
vt 0.206296 0.987668
vt 0.624254 0.011509
vt 0.621104 0.005428
vt 0.246914 0.987661
vt 0.514746 0.011169
vt 0.521706 0.011230
vt 0.521576 0.459169
vt 0.514613 0.459227
vt 0.248763 0.942842
vt 0.567614 0.011527
vt 0.617671 0.011516
vt 0.574209 0.011546
vt 0.574070 0.458863
vt 0.567474 0.458882
vt 0.624100 0.458866
vt 0.617511 0.458864
vt 0.673090 0.464849
vt 0.335317 0.982377
vt 0.521091 0.465214
vt 0.570736 0.464840
vt 0.620874 0.464983
vt 0.377854 0.982576
vt 0.719976 0.465604
vt 0.377860 0.936628
vt 0.335321 0.936817
vt 0.720063 0.459289
vt 0.570861 0.005576
vt 0.204432 0.942850
vt 0.719624 0.004628
vt 0.521231 0.005198
vt 0.719922 0.010989
vt 0.672549 0.005517
vn 0.010109 -0.995301 0.096298
vn 0.010009 -0.100406 0.994896
vn -0.010009 -0.100406 0.994896
vn -0.010109 -0.995301 0.096298
vn 0.906195 -0.306557 0.291262
vn 0.010109 -0.995301 -0.096298
vn 0.906195 -0.306558 -0.291262
vn 0.839400 0.000000 0.543514
vn 0.010829 0.000000 0.999941
vn 0.002303 0.705095 0.709109
vn 0.010109 0.995301 0.096298
vn -0.010109 0.995301 0.096298
vn -0.002303 0.705095 0.709109
vn 0.840588 0.541203 0.022598
vn 0.906195 0.306558 -0.291262
vn 0.010109 0.995301 -0.096298
vn 0.010009 -0.100406 -0.994896
vn 0.010009 0.100406 -0.994896
vn -0.010009 0.100406 -0.994896
vn -0.010109 0.995301 -0.096298
vn -0.010109 -0.995301 -0.096298
vn -0.010009 -0.100406 -0.994896
vn -0.906195 -0.306556 0.291262
vn -0.906195 -0.306556 -0.291262
vn -0.010829 0.000000 0.999941
vn -0.839400 0.000000 0.543514
vn -0.840589 0.541201 0.022599
vn -0.906195 0.306556 -0.291263
vn 1.000000 0.000000 0.000000
vn 1.000000 0.000000 0.000000
vn 1.000000 0.000000 0.000000
vn 1.000000 0.000000 0.000000
vn -1.000000 0.000000 0.000000
vn -1.000000 0.000000 0.000000
vn -1.000000 0.000000 0.000000
vn -1.000000 0.000000 0.000000
s 1
g LP_Balka LP_Balka LP_All
usemtl blinn15SG
f 1/1/1 3/2/2 14/3/3 13/4/4
f 2/36/5 1/1/1 12/6/6 11/7/7
f 3/2/2 2/36/5 5/33/8 4/35/9
f 4/9/10 6/10/11 16/11/12 18/12/13
f 6/10/11 5/34/14 8/31/15 7/14/16
f 11/7/7 10/15/17 9/16/18 8/31/15
f 7/14/16 9/16/18 19/17/19 21/18/20
f 10/15/17 12/6/6 22/19/21 24/20/22
f 13/4/4 15/21/23 23/25/24 22/19/21
f 15/21/23 14/3/3 18/30/25 17/27/26
f 17/23/27 16/11/12 21/18/20 20/24/28
f 20/24/28 19/17/19 24/20/22 23/25/24
s off
f 11/32/29 8/13/30 5/8/31 2/5/32
s 1
f 4/35/9 18/30/25 14/3/3 3/2/2
s off
f 20/26/33 23/22/34 15/29/35 17/28/36
s 1
f 7/14/16 21/18/20 16/11/12 6/10/11
f 13/4/4 22/19/21 12/6/6 1/1/1
f 10/15/17 24/20/22 19/17/19 9/16/18
f 1/1/1 2/36/5 3/2/2
f 4/9/10 5/34/14 6/10/11
f 7/14/16 8/31/15 9/16/18
f 10/15/17 11/7/7 12/6/6
f 13/4/4 14/3/3 15/21/23
f 16/11/12 17/23/27 18/12/13
f 19/17/19 20/24/28 21/18/20
f 22/19/21 23/25/24 24/20/22
g default
v -0.760957 2.614122 -0.130341
v -0.760898 2.608336 -0.138585
v -0.760898 2.608336 -0.148049
v -0.760948 2.614125 -0.156288
v -0.760813 2.623549 -0.159251
v -0.760747 2.623549 -0.127430
v -0.760957 2.608639 -0.122794
v -0.760897 2.599383 -0.135675
v -0.760897 2.599383 -0.150958
v -0.760948 2.608635 -0.163844
v -0.760813 2.623549 -0.168789
v -0.760747 2.623549 -0.117797
v -0.769828 2.606945 -0.120462
v -0.769851 2.596616 -0.134776
v -0.769851 2.596616 -0.151857
v -0.769832 2.606939 -0.166179
v -0.769884 2.623549 -0.171736
v -0.769908 2.623549 -0.114821
v -0.775311 2.611380 -0.126568
v -0.775385 2.603859 -0.137130
v -0.775385 2.603859 -0.149503
v -0.775322 2.611380 -0.160066
v -0.775489 2.623549 -0.164020
v -0.775570 2.623549 -0.122614
v -0.769828 2.615816 -0.132673
v -0.769851 2.611103 -0.139484
v -0.769851 2.611103 -0.147150
v -0.769832 2.615822 -0.153953
v -0.769884 2.623549 -0.156304
v -0.769908 2.623549 -0.130406
v -0.760677 2.664536 -0.127481
v -0.760677 2.664536 -0.117746
v -0.769935 2.664536 -0.114738
v -0.775658 2.664536 -0.122614
v -0.769935 2.664536 -0.130490
v -0.760677 2.667634 -0.159152
v -0.760677 2.667634 -0.168888
v -0.769936 2.667634 -0.171896
v -0.775658 2.667634 -0.164020
v -0.769936 2.667634 -0.156144
v 0.474631 2.615816 -0.132673
v 0.474654 2.611103 -0.139484
v 0.474654 2.611103 -0.147150
v 0.474634 2.615822 -0.153953
v 0.474686 2.623549 -0.156304
v 0.474711 2.623549 -0.130406
v 0.480114 2.611380 -0.126568
v 0.480188 2.603859 -0.137130
v 0.480188 2.603859 -0.149503
v 0.480125 2.611380 -0.160066
v 0.480292 2.623549 -0.164020
v 0.480373 2.623549 -0.122614
v 0.474631 2.606945 -0.120462
v 0.474654 2.596616 -0.134776
v 0.474654 2.596616 -0.151857
v 0.474634 2.606939 -0.166179
v 0.474686 2.623549 -0.171736
v 0.474711 2.623549 -0.114821
v 0.465760 2.608639 -0.122794
v 0.465700 2.599383 -0.135675
v 0.465700 2.599383 -0.150958
v 0.465751 2.608635 -0.163844
v 0.465616 2.623549 -0.168789
v 0.465550 2.623549 -0.117797
v 0.465760 2.614122 -0.130341
v 0.465700 2.608336 -0.138585
v 0.465700 2.608336 -0.148049
v 0.465751 2.614125 -0.156288
v 0.465616 2.623549 -0.159251
v 0.465550 2.623549 -0.127430
v 0.474738 2.664536 -0.130490
v 0.480460 2.664536 -0.122614
v 0.474738 2.664536 -0.114738
v 0.465479 2.664536 -0.117746
v 0.465479 2.664536 -0.127481
v 0.474738 2.667634 -0.156144
v 0.480460 2.667634 -0.164020
v 0.474738 2.667634 -0.171896
v 0.465479 2.667634 -0.168888
v 0.465479 2.667634 -0.159152
vt 0.793511 0.964091
vt 0.793579 0.967034
vt 0.791042 0.967404
vt 0.790843 0.964285
vt 0.792408 0.961137
vt 0.790295 0.961377
vt 0.791783 0.958633
vt 0.789860 0.958765
vt 0.791660 0.956121
vt 0.789796 0.956071
vt 0.792089 0.953671
vt 0.790035 0.953217
vt 0.788795 0.967514
vt 0.788848 0.964351
vt 0.788595 0.961486
vt 0.788311 0.958845
vt 0.788146 0.956076
vt 0.788017 0.953082
vt 0.786487 0.967206
vt 0.786879 0.964336
vt 0.786848 0.961524
vt 0.786663 0.958917
vt 0.786409 0.956145
vt 0.785970 0.953338
vt 0.783968 0.966837
vt 0.796675 0.963719
vt 0.795379 0.960452
vt 0.794349 0.958226
vt 0.794126 0.956174
vt 0.794440 0.953968
vt 0.783552 0.977245
vt 0.793198 0.977312
vt 0.790814 0.977288
vt 0.788486 0.977300
vt 0.786047 0.977300
vt 0.790634 0.942737
vt 0.792968 0.942872
vt 0.788355 0.942634
vt 0.786003 0.942572
vt 0.795408 0.943053
vt 0.914243 0.954835
vt 0.914838 0.952196
vt 0.906129 0.951357
vt 0.906456 0.954363
vt 0.914093 0.957556
vt 0.906509 0.957388
vt 0.914433 0.960063
vt 0.906508 0.960242
vt 0.914600 0.962843
vt 0.906459 0.963259
vt 0.903709 0.965981
vt 0.906137 0.966267
vt 0.908188 0.951138
vt 0.908261 0.954339
vt 0.908241 0.957382
vt 0.908243 0.960253
vt 0.908259 0.963290
vt 0.908180 0.966481
vt 0.910232 0.951337
vt 0.909906 0.954405
vt 0.909830 0.957407
vt 0.909835 0.960238
vt 0.909907 0.963236
vt 0.910248 0.966289
vt 0.912344 0.951828
vt 0.911848 0.954585
vt 0.911708 0.957469
vt 0.911761 0.960181
vt 0.911908 0.963067
vt 0.912350 0.965844
vt 0.913068 0.941406
vt 0.915506 0.941537
vt 0.906110 0.941113
vt 0.908446 0.941184
vt 0.910733 0.941284
vt 0.906126 0.977319
vt 0.903693 0.977361
vt 0.908460 0.977236
vt 0.910742 0.977132
vt 0.913066 0.977018
vt 0.915487 0.976898
vt 0.914852 0.965526
vt 0.903678 0.941079
vt 0.903690 0.951660
vt 0.903912 0.954482
vt 0.903926 0.963140
vt 0.903943 0.960199
vt 0.903951 0.957434
vt 0.783552 0.942569
vt 0.783678 0.953644
vt 0.795614 0.977406
vt 0.796315 0.966943
vt 0.784231 0.964194
vt 0.783990 0.956334
vt 0.784195 0.959025
vt 0.784274 0.961509
vn 0.915029 0.233107 -0.329217
vn 0.833709 0.022061 -0.551764
vn 0.780039 -0.063252 0.622526
vn 0.681660 -0.436269 0.587374
vn 0.912146 0.390336 -0.125010
vn 0.683736 -0.693141 0.228168
vn 0.912209 0.390048 0.125446
vn 0.683675 -0.693260 -0.227988
vn 0.914497 0.236951 0.327948
vn 0.682229 -0.434678 -0.587893
vn 0.832561 0.021050 0.553533
vn 0.781558 -0.059955 -0.620945
vn -0.291217 -0.081858 0.953149
vn -0.237289 -0.577206 0.781362
vn -0.238209 -0.922578 0.303489
vn -0.238177 -0.922636 -0.303339
vn -0.237545 -0.576218 -0.782013
vn -0.292141 -0.077638 -0.953219
vn -0.998217 -0.024107 0.054600
vn -0.970692 -0.146916 0.190189
vn -0.971931 -0.223106 0.074655
vn -0.971901 -0.223332 -0.074376
vn -0.970998 -0.144185 -0.190721
vn -0.998388 -0.022770 -0.051982
vn -0.807895 0.035349 -0.588266
vn -0.811466 0.341287 -0.474391
vn -0.808060 0.560873 -0.180168
vn -0.808118 0.560649 0.180603
vn -0.810869 0.344747 0.472906
vn -0.808179 0.033688 0.587972
vn 0.311017 0.558262 -0.769163
vn 0.308289 0.048897 -0.950035
vn 0.308086 0.905029 -0.293267
vn 0.308135 0.904833 0.293819
vn 0.310591 0.561990 0.766616
vn 0.308470 0.046359 0.950104
vn 0.309026 -0.001727 -0.951052
vn 0.809017 -0.002133 -0.587781
vn 0.809015 -0.002133 0.587785
vn -0.309017 -0.002135 0.951054
vn -0.999998 -0.002136 -0.000000
vn -0.809020 -0.001728 -0.587779
vn 0.809011 -0.003814 -0.587781
vn 0.809013 -0.003815 0.587778
vn -0.309020 -0.003817 -0.951048
vn -0.999993 -0.003818 -0.000000
vn -0.809017 -0.003089 0.587777
vn 0.309027 -0.003087 0.951048
vn 0.811461 0.341295 -0.474394
vn 0.807894 0.035352 -0.588267
vn 0.998217 -0.024103 0.054600
vn 0.970694 -0.146908 0.190187
vn 0.808055 0.560879 -0.180171
vn 0.971932 -0.223102 0.074652
vn 0.808116 0.560652 0.180602
vn 0.971901 -0.223331 -0.074376
vn 0.810866 0.344752 0.472908
vn 0.970998 -0.144183 -0.190721
vn 0.808176 0.033692 0.587977
vn 0.998389 -0.022766 -0.051982
vn 0.291218 -0.081855 0.953149
vn 0.237293 -0.577203 0.781363
vn 0.238214 -0.922577 0.303489
vn 0.238183 -0.922635 -0.303336
vn 0.237547 -0.576223 -0.782010
vn 0.292137 -0.077636 -0.953220
vn -0.780037 -0.063254 0.622528
vn -0.681654 -0.436274 0.587378
vn -0.683732 -0.693144 0.228170
vn -0.683668 -0.693268 -0.227985
vn -0.682231 -0.434683 -0.587887
vn -0.781557 -0.059960 -0.620946
vn -0.833708 0.022058 -0.551765
vn -0.915034 0.233099 -0.329209
vn -0.912148 0.390331 -0.125007
vn -0.912212 0.390043 0.125442
vn -0.914499 0.236949 0.327943
vn -0.832561 0.021047 0.553533
vn -0.308292 0.048896 -0.950034
vn -0.311026 0.558259 -0.769162
vn -0.308090 0.905029 -0.293264
vn -0.308139 0.904835 0.293809
vn -0.310594 0.561988 0.766617
vn -0.308465 0.046358 0.950106
vn -0.809017 -0.002135 -0.587782
vn -0.309028 -0.001728 -0.951051
vn 0.809018 -0.001726 -0.587781
vn 0.999998 -0.002133 0.000000
vn 0.309016 -0.002133 0.951055
vn -0.809014 -0.002135 0.587786
vn 0.999993 -0.003814 0.000000
vn 0.809014 -0.003086 0.587782
vn 0.309014 -0.003816 -0.951050
vn -0.809011 -0.003819 -0.587781
vn -0.809013 -0.003819 0.587778
vn -0.309021 -0.003089 0.951050
s 1
g LP_Balka LP_All LP_Chain
usemtl blinn15SG
f 25/37/37 30/38/38 36/39/39 31/40/40
f 26/41/41 25/37/37 31/40/40 32/42/42
f 27/43/43 26/41/41 32/42/42 33/44/44
f 28/45/45 27/43/43 33/44/44 34/46/46
f 29/47/47 28/45/45 34/46/46 35/48/48
f 31/40/40 36/39/39 42/49/49 37/50/50
f 32/42/42 31/40/40 37/50/50 38/51/51
f 33/44/44 32/42/42 38/51/51 39/52/52
f 34/46/46 33/44/44 39/52/52 40/53/53
f 35/48/48 34/46/46 40/53/53 41/54/54
f 37/50/50 42/49/49 48/55/55 43/56/56
f 38/51/51 37/50/50 43/56/56 44/57/57
f 39/52/52 38/51/51 44/57/57 45/58/58
f 40/53/53 39/52/52 45/58/58 46/59/59
f 41/54/54 40/53/53 46/59/59 47/60/60
f 43/56/56 48/55/55 54/61/61 49/129/62
f 44/57/57 43/56/56 49/129/62 50/132/63
f 45/58/58 44/57/57 50/132/63 51/131/64
f 46/59/59 45/58/58 51/131/64 52/130/65
f 47/60/60 46/59/59 52/130/65 53/126/66
f 25/37/37 49/62/67 54/128/68 30/38/38
f 26/41/41 50/63/69 49/62/67 25/37/37
f 27/43/43 51/64/70 50/63/69 26/41/41
f 28/45/45 52/65/71 51/64/70 27/43/43
f 53/66/72 52/65/71 28/45/45 29/47/47
f 59/127/73 55/68/74 30/38/38 54/128/68
f 55/68/74 56/69/75 36/39/39 30/38/38
f 56/69/75 57/70/76 42/49/49 36/39/39
f 57/70/76 58/71/77 48/55/55 42/49/49
f 58/71/77 59/67/78 54/61/61 48/55/55
f 61/72/79 60/73/80 29/47/47 35/48/48
f 62/74/81 61/72/79 35/48/48 41/54/54
f 63/75/82 62/74/81 41/54/54 47/60/60
f 64/125/83 63/75/82 47/60/60 53/126/66
f 60/73/80 64/76/84 53/66/72 29/47/47
s 2
f 65/121/85 70/120/86 76/79/87 71/80/88
f 66/124/89 65/121/85 71/80/88 72/82/90
f 67/123/91 66/124/89 72/82/90 73/84/92
f 68/122/93 67/123/91 73/84/92 74/86/94
f 69/87/95 68/122/93 74/86/94 75/88/96
f 71/80/88 76/79/87 82/89/97 77/90/98
f 72/82/90 71/80/88 77/90/98 78/91/99
f 73/84/92 72/82/90 78/91/99 79/92/100
f 74/86/94 73/84/92 79/92/100 80/93/101
f 75/88/96 74/86/94 80/93/101 81/94/102
f 77/90/98 82/89/97 88/95/103 83/96/104
f 78/91/99 77/90/98 83/96/104 84/97/105
f 79/92/100 78/91/99 84/97/105 85/98/106
f 80/93/101 79/92/100 85/98/106 86/99/107
f 81/94/102 80/93/101 86/99/107 87/100/108
f 83/96/104 88/95/103 94/101/109 89/102/110
f 84/97/105 83/96/104 89/102/110 90/103/111
f 85/98/106 84/97/105 90/103/111 91/104/112
f 86/99/107 85/98/106 91/104/112 92/105/113
f 87/100/108 86/99/107 92/105/113 93/106/114
f 89/102/110 94/101/109 70/78/115 65/77/116
f 90/103/111 89/102/110 65/77/116 66/81/117
f 91/104/112 90/103/111 66/81/117 67/83/118
f 92/105/113 91/104/112 67/83/118 68/85/119
f 93/106/114 92/105/113 68/85/119 69/118/120
f 99/107/121 95/108/122 70/78/115 94/101/109
f 95/119/123 96/109/124 76/79/87 70/120/86
f 96/109/124 97/110/125 82/89/97 76/79/87
f 97/110/125 98/111/126 88/95/103 82/89/97
f 98/111/126 99/107/121 94/101/109 88/95/103
f 101/112/127 100/113/128 69/87/95 75/88/96
f 102/114/129 101/112/127 75/88/96 81/94/102
f 103/115/130 102/114/129 81/94/102 87/100/108
f 104/116/131 103/115/130 87/100/108 93/106/114
f 100/117/132 104/116/131 93/106/114 69/118/120
